<?xml version="1.0" encoding="utf-8"?>
<!-- Generator: Adobe Illustrator 27.8.1, SVG Export Plug-In . SVG Version: 6.00 Build 0)  -->
<svg version="1.1" id="Capa_1" xmlns="http://www.w3.org/2000/svg" xmlns:xlink="http://www.w3.org/1999/xlink" x="0px" y="0px"
	 viewBox="0 0 850.4 531.2" style="enable-background:new 0 0 850.4 531.2;" xml:space="preserve">
<style type="text/css">
	.st0{fill:#B2B0A1;}
</style>
<g>
	<g>
		<path class="st0" d="M681,50.3c-31.2-8.9-86.1,18.5-122.9,55.7c-13.5,13.6-26,22-36.5,27.2c16.1-1.6,58.1-9.7,115.5-51.3
			c0,0-57.8,56-122.4,54.4c-14.3,5.7-23.4,5.3-23.4,5.3C609.7,167.2,681,50.3,681,50.3"/>
		<path class="st0" d="M574.8,202.7c-17.3-22.5-72.8-30.9-120.9-23c-14.3,2.3-26.2,2.5-35.9,1.6c11.1,7.7,43.9,25.2,105.2,17.7
			c0,0-65.3,18.3-113.9-18.9c-16.7-3-24.3-9.1-24.3-9.1C455.6,250.2,574.8,202.7,574.8,202.7"/>
		<path class="st0" d="M546.2,70.9c-31.4-9-86.5,18.6-123.5,56c-9.8,9.9-19.1,17-27.6,22.2c41,4.5,104.3-39.7,104.3-39.7
			c-66.3,49.1-100.5,47.2-112.2,44.1c-19,9.7-31.7,9.1-31.7,9.1C474.5,188.3,546.2,70.9,546.2,70.9"/>
		<path class="st0" d="M349.4,226.5c-2.9-30.6-50.4-68.3-100.8-86.5c-15.4-5.6-27-12-35.7-18.1c16.5,35.5,67.1,68.9,67.1,68.9
			c-49.6-28.6-69.4-59.4-77.2-77.1c-11.3-10.5-14.3-18.8-14.3-18.8C207.6,207.8,349.4,226.5,349.4,226.5"/>
		<path class="st0" d="M334.4,116c-26.9-5.2-90.5-4.3-110.4-3.9c31.1,17,102.1,46.4,167.4,5.7c0,0-67.7-55.8-183.4-15.5
			c0,0,3.1,2.2,8.6,5.5C259.8,100,334.4,116,334.4,116"/>
		<path class="st0" d="M199.6,70.7c-7.7-1.4-17.2-5.9-30.2-15.6c0,0,16.8,22.4,37.2,24.8c20.3,2.4,35.8-11.2,32.3-28.5
			c-2.2-10.8-21.3-9.4-32.5,2c-11.2,11.4,5.3,19,12.2,12.8c6.8-6.1-1.3-16-9.5-9.1c0,0,5.2-7.8,14.5-5.5c4.8,1.2,5.7,6.1,4.2,9.4
			C226.2,64.8,221.4,74.6,199.6,70.7"/>
		<path class="st0" d="M356.9,193.6c0,0,18.1,2.2,23.5,25.3c3,12.8,8.8,26,22.3,24.9c10.7-0.9,16.9-32.6,1.6-34.4
			c-15.3-1.9-16.1,20.2-5,21.3c0,0,7.3,0.2,7.1-7c-0.2-6.3-6.8-6.3-8.2-2.7c0,0-0.6-2.3,0.5-3.9c1-1.3,5-2.1,7.4-0.9
			c5.5,2.8,1.9,19.4-7.2,17.9C383.8,231.6,389.9,193.2,356.9,193.6"/>
	</g>
	<g>
		<path class="st0" d="M97.7,386.7c-8,0-15.6-0.9-21.4-2.5l0.6-9.5c6.3,2.1,14.4,3.7,21.8,3.7c14.3,0,26.6-5.5,26.6-20
			c0-24.8-50.4-15.9-50.4-47c0-15.6,13.4-27.2,36.1-27.2c6.8,0,12.9,0.7,19.1,1.8l-0.6,8.9c-6-1.8-12.9-2.8-19.2-2.8
			c-16.2,0-25.1,7.3-25.1,18.2c0,24.2,50.6,15.4,50.6,46.7C135.7,374.5,121.1,386.7,97.7,386.7"/>
		<path class="st0" d="M199,386.7c-32.8,0-38.8-17.3-38.8-34.1v-67.2h10.1v66.1c0,14.8,5.4,27.4,29.6,27.4c20.3,0,30.6-8,30.6-30.4
			v-63.2h9.9v62.3C240.5,373,226.6,386.7,199,386.7"/>
		<path class="st0" d="M374.7,385.5l-9.9-64.8c-1.9-12.9-2.8-20.2-3.3-25.4h-0.3c-0.9,3.7-2.7,9.2-5,15.7l-26.8,74.5h-12.1
			l-25.4-69.9c-2.5-7.1-5.5-14.7-6.6-20.3H285c-0.5,7.7-1.6,15.9-2.9,26.2l-8,63.9h-10.6l14.8-100.1h13.2l25.9,71.2
			c2.7,7.4,4.9,13.9,6,19.1h0.3c1.6-6.7,3.2-10.8,5.7-17.8l26.5-72.5h13.8l15.6,100.1H374.7z"/>
		<path class="st0" d="M515.7,385.5l-9.9-64.8c-1.9-12.9-2.8-20.2-3.3-25.4h-0.3c-0.9,3.7-2.7,9.2-5.1,15.7l-26.8,74.5h-12.2
			l-25.4-69.9c-2.5-7.1-5.5-14.7-6.6-20.3h-0.1c-0.5,7.7-1.6,15.9-2.8,26.2l-8,63.9h-10.6l14.8-100.1h13.2l25.8,71.2
			c2.7,7.4,4.9,13.9,6,19.1h0.3c1.6-6.7,3.2-10.8,5.7-17.8l26.5-72.5h13.9l15.6,100.1H515.7z"/>
		<path class="st0" d="M589.1,386.7c-32.8,0-38.8-17.3-38.8-34.1v-67.2h10.1v66.1c0,14.8,5.3,27.4,29.6,27.4
			c20.3,0,30.6-8,30.6-30.4v-63.2h9.9v62.3C630.6,373,616.7,386.7,589.1,386.7"/>
		<path class="st0" d="M764.8,385.5l-9.9-64.8c-1.9-12.9-2.8-20.2-3.3-25.4h-0.3c-0.9,3.7-2.7,9.2-5,15.7l-26.8,74.5h-12.1
			l-25.4-69.9c-2.5-7.1-5.5-14.7-6.6-20.3h-0.2c-0.5,7.7-1.6,15.9-2.8,26.2l-8,63.9h-10.5l14.8-100.1h13.3l25.8,71.2
			c2.7,7.4,4.9,13.9,6,19.1h0.3c1.6-6.7,3.2-10.8,5.7-17.8l26.5-72.5H760l15.6,100.1H764.8z"/>
	</g>
	<g>
		<path class="st0" d="M373.4,486.1h-39.6v-7.4l24.9-25.3c3.8-3.8,5.7-7.7,5.7-11.5c0-3.2-1-6.1-3-8.5c-2-2.4-4.6-3.6-7.8-3.6
			c-3.5,0-6.3,1.3-8.3,3.8c-2,2.6-3,5.7-3,9.3v1.6h-8.9v-0.3c-0.1-4.9,1-9.2,3-12.9c2.1-3.7,5.3-6.5,9.5-8.2c2.4-1,4.8-1.5,7.3-1.5
			c5.7,0,10.5,2,14.3,5.9c3.8,4,5.7,8.8,5.7,14.5c0,3.6-0.7,6.7-2.2,9.3c-1.5,2.6-3.7,5.5-6.6,8.5l-17.6,18h26.5V486.1z"/>
		<path class="st0" d="M421.9,442.4v23.3c0,3.1-0.3,5.7-0.9,7.8c-0.6,2.1-1.9,4.3-3.7,6.5c-4,4.8-9.4,7.3-16,7.3c-3.1,0-6-0.7-8.8-2
			c-2.8-1.3-5.2-3.2-7.1-5.7c-1.7-2.2-2.9-4.4-3.5-6.6c-0.6-2.2-0.9-4.9-0.9-7.9V443c0-4.6,1.1-8.6,3.2-12.1c2.1-3.4,5.2-6,9.4-7.7
			c2.7-1.1,5.4-1.6,8.1-1.6c5.8,0,10.6,2,14.5,6.1S421.9,436.6,421.9,442.4z M413.1,465.9v-23.5c0-3.8-1-6.8-3-9.2
			c-2-2.4-4.8-3.5-8.5-3.5c-3.6,0-6.5,1.2-8.6,3.5c-2.1,2.4-3.1,5.4-3.1,9.2v23.3c0,3.9,1,7.2,3.1,9.7c2.1,2.5,5,3.8,8.7,3.8
			c3.4,0,6.2-1.3,8.5-4c1.2-1.4,2-2.7,2.3-4S413.1,468,413.1,465.9z"/>
		<path class="st0" d="M468.3,486.1h-39.6v-7.4l24.9-25.3c3.8-3.8,5.7-7.7,5.7-11.5c0-3.2-1-6.1-3-8.5s-4.6-3.6-7.8-3.6
			c-3.5,0-6.3,1.3-8.3,3.8c-2,2.6-3,5.7-3,9.3v1.6h-8.9v-0.3c-0.1-4.9,1-9.2,3-12.9c2.1-3.7,5.3-6.5,9.5-8.2c2.4-1,4.8-1.5,7.3-1.5
			c5.7,0,10.5,2,14.3,5.9c3.8,4,5.7,8.8,5.7,14.5c0,3.6-0.7,6.7-2.2,9.3s-3.7,5.5-6.6,8.5l-17.6,18h26.5V486.1z"/>
		<path class="st0" d="M515.5,467.2c0,5.9-1.9,10.8-5.8,14.5c-3.9,3.7-8.8,5.6-14.7,5.6c-5.6,0-10.4-1.9-14.4-5.7
			c-4-3.8-6-8.5-6.1-14.1h8.9c0.2,3.5,1.3,6.3,3.5,8.5c2.1,2.2,4.9,3.2,8.3,3.2c3.1,0,5.8-1.2,8-3.5c2.2-2.3,3.3-5,3.3-8.2
			c0-3.3-1.1-6-3.4-8.2s-5.1-3.2-8.4-3.2h-3.2v-8.9h3.1c2.7,0,5-0.8,6.7-2.4c1.7-1.6,2.6-3.7,2.6-6.4c0-2.4-0.8-4.4-2.4-6.2
			c-1.6-1.7-3.6-2.6-6-2.6c-2.5,0-4.5,0.8-5.9,2.5c-1.4,1.7-2.3,3.8-2.6,6.4H478c0.5-7.9,4.2-13.2,11.2-15.8
			c2.4-0.8,4.5-1.2,6.4-1.2c5,0,9.1,1.7,12.3,5c3.2,3.3,4.8,7.5,4.8,12.5c0,2.7-0.4,5-1.3,6.8c-0.9,1.8-2.4,3.6-4.5,5.6
			C512.6,455.1,515.5,460.3,515.5,467.2z"/>
	</g>
</g>
</svg>
